{"title":"Snatch (2000) &amp; BluRay Xtras - 1080p","uid":11579892,"size":4637436250,"categoryP":"video","categoryS":"hd___movies","magnet":"?xt=urn:btih:0e703b900d3c35d6acd20d81edd9708aa1469d9f&amp;dn=Snatch+%282000%29+%26amp%3B+BluRay+Xtras+-+1080p&amp;tr=udp%3A%2F%2Ftracker.openbittorrent.com%3A80&amp;tr=udp%3A%2F%2Fopen.demonii.com%3A1337&amp;tr=udp%3A%2F%2Ftracker.coppersurfer.tk%3A6969&amp;tr=udp%3A%2F%2Fexodus.desync.com%3A6969","seeders":14,"leechers":1,"uploader":"AlienMethod","files":12,"time":1417114325,"description":"x264/MP4\n2-Channel AAC (audio 1)\n6-Channel AC3 (audio 2)\nBluRay Xtras (Making of, etc.) Incl.\nEnglish Subs Incl.\n\n&quot;Unscrupulous boxing promoters, violent bookmakers, a Russian gangster, incompetent amateur robbers, and supposedly Jewish jewelers fight to track down a priceless stolen diamond.&quot;\n\n\nVideo\nID : 1\nFormat : AVC\nFormat/Info : Advanced Video Codec\nFormat profile : &lt;a class=&quot;__cf_email__&quot; href=&quot;/cdn-cgi/l/email-protection&quot; data-cfemail=&quot;3d75545a557d7108130d&quot;&gt;[email&amp;#160;protected]&lt;/a&gt;&lt;script cf-hash='f9e31' type=&quot;text/javascript&quot;&gt;\n/* &lt;![CDATA[ */!function(){try{var t=&quot;currentScript&quot;in document?document.currentScript:function(){for(var t=document.getElementsByTagName(&quot;script&quot;),e=t.length;e--;)if(t[e].getAttribute(&quot;cf-hash&quot;))return t[e]}();if(t&amp;&amp;t.previousSibling){var e,r,n,i,c=t.previousSibling,a=c.getAttribute(&quot;data-cfemail&quot;);if(a){for(e=&quot;&quot;,r=parseInt(a.substr(0,2),16),n=2;a.length-n;n+=2)i=parseInt(a.substr(n,2),16)^r,e+=String.fromCharCode(i);e=document.createTextNode(e),c.parentNode.replaceChild(e,c)}}}catch(u){}}();/* ]]&gt; */&lt;/script&gt;\nFormat settings, CABAC : Yes\nFormat settings, ReFrames : 8 frames\nCodec ID : avc1\nCodec ID/Info : Advanced Video Coding\nDuration : 1h 42mn\nBit rate : 4 759 Kbps\nMaximum bit rate : 25.5 Mbps\nWidth : 1 920 pixels\nHeight : 1 040 pixels\nDisplay aspect ratio : 1.85:1\nFrame rate mode : Constant\nFrame rate : 23.976 fps\nColor space : YUV\nChroma subsampling : 4:2:0\nBit depth : 8 bits\nScan type : Progressive\nBits/(Pixel*Frame) : 0.099\nStream size : 3.42 GiB (88%)\nTitle : Snatch.2000.Encode_track1_und.h264\nWriting library : x264 core 142 r2479 dd79a61\nEncoded date : UTC 2014-11-27 05:49:48\nTagged date : UTC 2014-11-27 05:50:30\n\nAudio #1\nID : 2\nFormat : AAC\nFormat/Info : Advanced Audio Codec\nFormat profile : LC\nCodec ID : 40\nDuration : 1h 42mn\nBit rate mode : Variable\nBit rate : 207 Kbps\nMaximum bit rate : 260 Kbps\nChannel(s) : 2 channels\nChannel positions : Front: L R\nSampling rate : 48.0 KHz\nCompression mode : Lossy\nStream size : 152 MiB (4%)\nTitle : Snatch.2000.AAC.m4a\nEncoded date : UTC 2014-11-27 05:50:03\nTagged date : UTC 2014-11-27 05:50:30\n\nAudio #2\nID : 3\nFormat : AC-3\nFormat/Info : Audio Coding 3\nMode extension : CM (complete main)\nFormat settings, Endianness : Big\nCodec ID : ac-3\nDuration : 1h 42mn\nBit rate mode : Constant\nBit rate : 448 Kbps\nChannel(s) : 6 channels\nChannel positions : Front: L C R, Side: L R, LFE\nSampling rate : 48.0 KHz\nBit depth : 16 bits\nCompression mode : Lossy\nStream size : 329 MiB (8%)\nTitle : Snatch.2000.AC3.ac3\nEncoded date : UTC 2014-11-27 05:50:24\nTagged date : UTC 2014-11-27 05:50:30\n\nm/ AM m/","torrent":{"xt":"urn:btih:0e703b900d3c35d6acd20d81edd9708aa1469d9f","amp;dn":"Snatch+%282000%29+%26amp%3B+BluRay+Xtras+-+1080p","amp;tr":["udp%3A%2F%2Ftracker.openbittorrent.com%3A80","udp%3A%2F%2Fopen.demonii.com%3A1337","udp%3A%2F%2Ftracker.coppersurfer.tk%3A6969","udp%3A%2F%2Fexodus.desync.com%3A6969"],"infoHash":"0e703b900d3c35d6acd20d81edd9708aa1469d9f","infoHashBuffer":{"type":"Buffer","data":[14,112,59,144,13,60,53,214,172,210,13,129,237,217,112,138,161,70,157,159]},"announce":[],"urlList":[]}}